<?xml version="1.0"?>
<svg version="1.1" xmlns="http://www.w3.org/2000/svg" width="180" height="100" style=""><path fill="#" d="M15.833984375,61.40234375q0-0.478515625,0.328125-0.6083984375t0.7109375-0.1298828125q0.669921875,0,1.134765625,0.6015625t0.8818359375,1.3193359375t0.8271484375,1.3193359375t0.970703125,0.6015625q0.423828125,0,0.7724609375-0.2119140625t0.6015625-0.533203125t0.3896484375-0.724609375t0.13671875-0.7998046875q0-1.0390625-0.4169921875-2.146484375t-1.06640625-2.283203125t-1.3740234375-2.40625t-1.3671875-2.501953125t-1.06640625-2.5908203125t-0.423828125-2.6591796875q0-2.009765625,1.203125-3.1171875t3.171875-1.107421875q0.669921875,0,1.353515625,0.19140625t1.2578125,0.57421875t0.9365234375,0.943359375t0.3623046875,1.3125q0,0.24609375-0.3623046875,0.3212890625t-0.5263671875,0.0751953125q-0.24609375,0-0.533203125-0.0615234375t-0.369140625-0.3349609375t-0.232421875-0.62890625t-0.3759765625-0.6630859375t-0.533203125-0.533203125t-0.6767578125-0.2255859375q-0.615234375,0-1.0458984375,0.2529296875t-0.697265625,0.6767578125t-0.396484375,0.9501953125t-0.1298828125,1.0869140625q0,1.3125,0.451171875,2.6455078125t1.12109375,2.65234375t1.4560546875,2.6044921875t1.4560546875,2.501953125t1.12109375,2.37890625t0.451171875,2.201171875q0,0.9296875-0.4375,1.572265625t-1.107421875,1.0458984375t-1.4833984375,0.587890625t-1.5927734375,0.1845703125q-0.833984375,0-1.708984375-0.3349609375t-1.572265625-0.9228515625t-1.1484375-1.3740234375t-0.451171875-1.7021484375z M28.13416015625,64.451171875l0.287109375-0.341796875q-0.0546875-2.296875-0.123046875-4.580078125t-0.068359375-4.5390625q0-2.802734375,0.3349609375-5.4208984375t0.6630859375-5.3662109375q0.02734375-0.1640625,0.1572265625-0.2666015625t0.3212890625-0.1708984375t0.3896484375-0.095703125t0.3623046875-0.02734375q0.21875,0,0.546875,0.08203125t0.65625,0.478515625q0,0.13671875,0.0205078125,0.2392578125t0.0205078125,0.2392578125q0,1.0390625-0.2802734375,2.228515625t-0.3759765625,2.283203125q-0.109375,1.33984375-0.150390625,2.65234375t-0.041015625,2.666015625l0.02734375,1.203125q0.2734375-0.341796875,0.779296875-0.875t1.09375-1.0322265625t1.17578125-0.8544921875t1.06640625-0.35546875q0.724609375,0,1.0048828125,0.41015625t0.2802734375,1.080078125q0,0.615234375-0.2666015625,1.28515625t-0.697265625,1.3056640625t-0.9775390625,1.1416015625t-1.080078125,0.751953125q0.724609375,0.90234375,1.4833984375,1.72265625t1.6611328125,1.544921875l0,0.314453125q-0.02734375,0.13671875-0.1708984375,0.205078125t-0.314453125,0.109375t-0.3349609375,0.0615234375t-0.2734375,0.0205078125q-0.669921875,0-1.2919921875-0.396484375t-1.162109375-0.970703125t-1.0185546875-1.216796875t-0.875-1.12109375q0.08203125,1.572265625,0.1845703125,3.1376953125t0.1025390625,3.1376953125q0,0.19140625-0.1708984375,0.3212890625t-0.396484375,0.1982421875t-0.4580078125,0.095703125t-0.3828125,0.02734375q-0.806640625,0-1.1416015625-0.2939453125t-0.5673828125-1.0185546875z M30.93689453125,58.01171875q0.341796875,0,0.8134765625-0.2939453125t0.9775390625-0.7314453125t0.943359375-0.9228515625t0.7041015625-0.9228515625t0.2666015625-0.7041015625t-0.369140625-0.2392578125q-0.13671875,0-0.560546875,0.396484375t-0.943359375,0.970703125t-1.0390625,1.244140625t-0.79296875,1.203125z M39.2038671875,58.572265625q0-1.2578125,0.2939453125-2.4677734375t0.4990234375-2.4130859375q0.0546875-0.314453125,0.4306640625-0.3896484375t0.6357421875-0.0751953125q0.451171875,0,0.724609375,0.13671875q0.109375,0.0546875,0.205078125,0.123046875t0.095703125,0.177734375q0,1.17578125-0.2802734375,2.296875t-0.2802734375,2.37890625q0,0.423828125,0.0615234375,0.7998046875t0.1162109375,0.7451171875l0.08203125,0.396484375q0,0.109375,0.013671875,0.19140625t0.041015625,0.19140625q0,0.24609375-0.3486328125,0.3349609375t-0.6083984375,0.0888671875q-0.396484375,0-0.7314453125-0.1572265625t-0.5263671875-0.5400390625l-0.19140625-0.396484375q-0.1640625-0.314453125-0.1640625-0.7041015625t-0.068359375-0.7177734375z M40.0788671875,50.341796875l0-0.259765625q0-0.642578125,0.3212890625-1.1484375t0.9638671875-0.505859375q0.08203125,0,0.1572265625,0.013671875t0.1572265625,0.013671875q0.1640625,0.02734375,0.4306640625,0.1298828125t0.2666015625,0.3212890625l0,0.02734375q-0.0546875,0.109375-0.068359375,0.2255859375t-0.068359375,0.1982421875l0.02734375-0.02734375q-0.1640625,0.423828125-0.2666015625,0.68359375t-0.2255859375,0.4169921875t-0.3076171875,0.2255859375t-0.5263671875,0.068359375q-0.0546875,0-0.19140625-0.013671875t-0.2939453125-0.0546875t-0.2666015625-0.109375t-0.109375-0.205078125z M45.18763671875,58.96875l0-0.396484375q0-0.4921875,0.02734375-0.9296875q0.02734375-0.615234375,0.02734375-1.01171875q0-0.21875,0.02734375-0.4990234375t0.13671875-0.4443359375q0.13671875-0.13671875,0.3212890625-0.2802734375t0.4033203125-0.1435546875q0.697265625,0,1.09375,0.1572265625t0.423828125,0.6494140625l0.0546875,0.423828125q0.24609375-0.587890625,0.65625-1.4560546875t0.9501953125-1.654296875t1.216796875-1.33984375t1.4287109375-0.5537109375q0.697265625,0,1.1484375,0.65625t0.7177734375,1.6748046875t0.3759765625,2.26953125t0.150390625,2.4541015625t0.0546875,2.1943359375t0.095703125,1.4970703125q0.0546875,0.423828125,0.1845703125,0.8955078125t0.1298828125,0.8681640625q0,0.109375-0.1572265625,0.2119140625t-0.3349609375,0.1708984375t-0.3623046875,0.109375t-0.2666015625,0.041015625q-0.533203125,0-0.7587890625-0.7998046875t-0.2802734375-2.0029296875t-0.0546875-2.6044921875t-0.095703125-2.6044921875t-0.3896484375-2.0029296875t-0.9365234375-0.8271484375q-0.587890625,0-1.216796875,0.7587890625t-1.080078125,2.0166015625q-0.4375,1.2578125-0.6015625,2.857421875q-0.0546875,0.505859375-0.0546875,1.01171875q0,1.107421875,0.232421875,2.21484375q0.02734375,0.19140625-0.1572265625,0.287109375t-0.4580078125,0.150390625t-0.5537109375,0.068359375t-0.4306640625,0.013671875q-0.533203125,0-0.8544921875-0.3759765625t-0.4990234375-0.9638671875t-0.2392578125-1.3193359375t-0.0751953125-1.4423828125z M57.610859375,59.638671875q0-2.966796875,0.2666015625-5.9404296875t1.1142578125-5.8583984375q0.24609375-0.861328125,0.642578125-1.7021484375t0.970703125-1.4970703125t1.3671875-1.06640625t1.88671875-0.41015625l0.287109375,0.02734375q1.17578125,0.1640625,1.736328125,0.9501953125t0.560546875,1.9619140625q0,0.314453125-0.0751953125,0.7861328125t-0.2392578125,0.9091796875t-0.4443359375,0.7451171875t-0.7041015625,0.3076171875q-0.19140625-0.02734375-0.3486328125-0.068359375t-0.2939453125-0.177734375q0.21875-0.478515625,0.3896484375-0.998046875t0.1708984375-1.189453125q0-0.24609375-0.041015625-0.62890625t-0.1572265625-0.7587890625t-0.3076171875-0.65625t-0.533203125-0.2802734375q-0.861328125,0-1.44921875,0.9638671875t-0.984375,2.4609375t-0.587890625,3.30859375t-0.2939453125,3.5t-0.1162109375,3.048828125t-0.013671875,1.9208984375q0,0.65625-0.013671875,1.44921875l0,0.177734375q0.013671875,0.697265625,0.095703125,1.326171875q0.109375,0.7109375,0.423828125,1.23046875t0.984375,0.6015625q0.205078125,0.02734375,0.396484375,0.02734375q0.79296875,0,1.435546875-0.451171875q0.79296875-0.560546875,1.408203125-1.4560546875t1.09375-1.96875t0.8818359375-2.0302734375t0.7861328125-1.5859375t0.79296875-0.62890625q0.13671875,0,0.41015625,0.0546875t0.2734375,0.259765625q0,0.0546875-0.02734375,0.150390625t-0.068359375,0.150390625q-0.369140625,1.44921875-0.9365234375,3.0078125t-1.44921875,2.8369140625t-2.16015625,2.0849609375t-3.0693359375,0.806640625q-1.28515625,0-2.0849609375-0.4853515625t-1.23046875-1.298828125t-0.587890625-1.8388671875t-0.1572265625-2.078125z M72.18056640625,58.900390625q0-0.9296875,0.2529296875-1.791015625t0.7587890625-1.5380859375t1.2646484375-1.080078125t1.7568359375-0.4033203125q0.615234375,0,1.3603515625,0.1845703125t1.4013671875,0.546875t1.09375,0.9228515625t0.4375,1.28515625q0,0.341796875-0.1162109375,0.51953125t-0.4716796875,0.177734375l-0.150390625-0.02734375q0.396484375,1.06640625,0.68359375,2.1875t0.560546875,2.2421875q0.109375,0.21875,0.1640625,0.3896484375t0.0546875,0.3349609375q0,0.21875-0.123046875,0.3623046875t-0.3212890625,0.2119140625t-0.41015625,0.095703125t-0.3759765625,0.02734375q-0.587890625,0-0.8818359375-0.205078125t-0.423828125-0.560546875t-0.1572265625-0.7998046875t-0.109375-0.8955078125q-0.1640625,0.533203125-0.4306640625,1.0390625t-0.62890625,0.9091796875t-0.8544921875,0.642578125t-1.107421875,0.2392578125q-0.90234375,0-1.517578125-0.51953125t-0.9912109375-1.2783203125t-0.546875-1.6201171875t-0.1708984375-1.599609375z M74.12197265625,58.708984375q0,0.505859375,0.068359375,1.06640625t0.2255859375,1.107421875t0.4033203125,1.0322265625t0.615234375,0.8544921875q0.669921875-0.724609375,0.9912109375-1.763671875t0.57421875-2.0029296875t0.57421875-1.654296875t0.9912109375-0.6904296875q0.423828125,0,0.7109375,0.150390625q-0.13671875-0.341796875-0.451171875-0.6630859375t-0.7041015625-0.587890625t-0.806640625-0.4375t-0.7861328125-0.1708984375q-0.109375,0-0.2529296875,0.0341796875t-0.2255859375,0.0068359375q-0.560546875,0.1640625-0.9228515625,0.5673828125t-0.587890625,0.9501953125t-0.3212890625,1.12109375t-0.095703125,1.080078125z M84.0295703125,55.072265625q0-0.560546875,0.1982421875-0.943359375t0.8408203125-0.3828125q0.24609375,0,0.615234375,0.0751953125t0.423828125,0.3759765625q0.13671875,0.806640625,0.150390625,1.75t0.095703125,1.77734375q0.314453125-0.615234375,0.806640625-1.326171875t1.12109375-1.3125t1.3671875-0.998046875t1.50390625-0.396484375q0.0546875,0,0.205078125,0.041015625t0.2802734375,0.1162109375t0.1572265625,0.1708984375t-0.150390625,0.177734375q-0.0546875,0.1640625-0.232421875,0.1982421875t-0.314453125,0.0341796875q-0.08203125,0-0.259765625-0.068359375q-1.01171875,0.533203125-1.72265625,1.44921875t-1.162109375,2.0302734375t-0.65625,2.3515625t-0.205078125,2.4130859375q0,0.587890625-0.2666015625,0.7109375t-0.8544921875,0.123046875q-0.314453125,0-0.6630859375-0.068359375t-0.4853515625-0.4375q-0.24609375-0.779296875-0.4033203125-1.791015625t-0.2392578125-2.0849609375t-0.1162109375-2.1123046875t-0.0341796875-1.873046875z M93.74576171875,59.4609375q0-0.95703125,0.2119140625-2.255859375t0.7177734375-2.4609375t1.3330078125-1.9755859375t2.0849609375-0.8134765625q1.17578125,0,1.763671875,0.6767578125t0.587890625,1.8251953125q0,0.751953125-0.2802734375,1.6474609375t-0.7998046875,1.6953125t-1.23046875,1.3330078125t-1.5859375,0.533203125l-0.35546875-0.02734375q0,0.369140625,0.109375,0.9912109375t0.3212890625,1.2373046875t0.546875,1.080078125t0.8134765625,0.46484375q0.697265625,0,1.33984375-0.560546875t1.216796875-1.244140625t1.06640625-1.244140625t0.90234375-0.560546875q0.21875,0,0.451171875,0.068359375t0.259765625,0.3828125q0,0.19140625-0.1025390625,0.314453125t-0.1845703125,0.2734375q-0.423828125,0.724609375-0.9228515625,1.380859375t-1.1279296875,1.189453125t-1.3740234375,0.8408203125t-1.6474609375,0.3076171875q-1.17578125,0-1.955078125-0.4169921875t-1.2578125-1.12109375t-0.6904296875-1.626953125t-0.2119140625-1.9345703125z M96.19302734375,58.421875l0.3828125,0.341796875q0.2734375,0.24609375,0.546875,0.109375t0.4921875-0.4990234375t0.4033203125-0.8955078125t0.328125-1.09375t0.2119140625-1.09375t0.068359375-0.888671875l0-0.46484375t-0.041015625-0.4921875t-0.1435546875-0.3896484375t-0.3212890625-0.1982421875q-0.068359375-0.013671875-0.123046875-0.013671875q-0.46484375,0-0.79296875,0.587890625q-0.35546875,0.65625-0.57421875,1.5927734375t-0.314453125,1.9208984375t-0.123046875,1.4765625z"/><path fill="#" d="M109.694375,48.5703125q0-0.275390625,0.0146484375-0.544921875t0.0498046875-0.533203125q0.0234375-0.134765625,0.2080078125-0.193359375t0.3076171875-0.05859375l0.140625,0.01171875q0.169921875,0.0234375,0.3427734375-0.0234375t0.3427734375-0.046875q0.3984375,0,0.890625,0.087890625t0.9228515625,0.298828125t0.7236328125,0.5537109375t0.29296875,0.8466796875t-0.3046875,0.9404296875t-0.767578125,0.767578125t-0.99609375,0.5185546875t-0.978515625,0.1875q0.046875,1.130859375,0.1318359375,2.244140625t0.2900390625,2.2265625l0.01171875,0.076171875q0,0.08203125-0.0732421875,0.134765625t-0.1728515625,0.0849609375t-0.2021484375,0.0439453125t-0.1669921875,0.01171875q-0.146484375,0-0.3544921875-0.0556640625t-0.2548828125-0.2197265625q-0.134765625-0.515625-0.2109375-1.1337890625t-0.111328125-1.2919921875t-0.0498046875-1.3564453125t-0.0146484375-1.3330078125l0-1.318359375q0-0.216796875-0.005859375-0.451171875t-0.005859375-0.474609375z M110.801796875,47.62109375q0,0.802734375,0.017578125,1.6025390625t0.041015625,1.6025390625q0.345703125-0.0703125,0.7060546875-0.2490234375t0.650390625-0.4248046875t0.46875-0.5595703125t0.1787109375-0.6591796875q0-0.310546875-0.1552734375-0.556640625t-0.4013671875-0.421875q-0.240234375-0.169921875-0.544921875-0.263671875q-0.26953125-0.08203125-0.52734375-0.08203125l-0.064453125,0z M115.12994140625,47.97265625q0-0.275390625,0.0673828125-0.4013671875t0.193359375-0.17578125t0.3046875-0.0380859375t0.4189453125,0.01171875q0.609375,0,1.23046875,0.1875t1.119140625,0.5478515625t0.802734375,0.8876953125t0.3046875,1.212890625q0,0.45703125-0.1318359375,0.8642578125t-0.3720703125,0.76171875t-0.5625,0.6474609375t-0.708984375,0.509765625q0.158203125,0.158203125,0.41015625,0.5595703125t0.498046875,0.85546875t0.4365234375,0.8818359375t0.2255859375,0.64453125l-0.0703125,0.10546875q-0.158203125,0.09375-0.380859375,0.099609375q-0.10546875,0-0.275390625-0.0263671875t-0.216796875-0.1552734375q-0.240234375-0.673828125-0.5244140625-1.388671875t-0.7001953125-1.2890625l0-0.01171875q-0.146484375,0.05859375-0.2900390625,0.1142578125t-0.2900390625,0.1025390625q0.046875,0.650390625,0.0966796875,1.2802734375t0.0498046875,1.2744140625q0,0.08203125-0.0791015625,0.1318359375t-0.1787109375,0.0791015625t-0.2021484375,0.041015625t-0.1669921875,0.01171875q-0.05859375,0-0.1669921875-0.01171875t-0.2080078125-0.041015625t-0.1728515625-0.0849609375t-0.0732421875-0.1494140625q0-0.650390625-0.029296875-1.2978515625t-0.064453125-1.2919921875q-0.181640625-0.1171875-0.181640625-0.3046875q0-0.146484375,0.140625-0.19921875q-0.0703125-1.236328125-0.1611328125-2.466796875t-0.0908203125-2.478515625z M116.19048828125,47.791015625q0.08203125,1.271484375,0.1845703125,2.513671875t0.1962890625,2.513671875q0.41015625-0.1171875,0.7646484375-0.4072265625t0.6123046875-0.6533203125t0.4013671875-0.791015625t0.1435546875-0.849609375q0-0.46875-0.1875-0.8994140625t-0.498046875-0.7529296875q-0.31640625-0.322265625-0.7265625-0.50390625q-0.36328125-0.158203125-0.76171875-0.158203125l-0.10546875,0z M120.7705859375,51.857421875q0-0.345703125,0.0380859375-0.837890625t0.140625-1.025390625t0.275390625-1.060546875t0.4423828125-0.931640625t0.64453125-0.638671875q0.310546875-0.193359375,0.71484375-0.193359375q0.08203125,0,0.169921875,0.01171875q1.01953125,0.09375,1.5673828125,0.4658203125t0.7998046875,0.943359375t0.29296875,1.30078125t0.041015625,1.5380859375q0,0.650390625-0.1201171875,1.4150390625t-0.4248046875,1.4267578125t-0.8408203125,1.1044921875t-1.3623046875,0.4423828125q-0.50390625,0-0.8818359375-0.1845703125t-0.6416015625-0.4921875t-0.43359375-0.71484375t-0.2578125-0.84375t-0.1259765625-0.8818359375t-0.0380859375-0.84375z M121.9600390625,51.59375q0,0.251953125,0.005859375,0.6181640625t0.0498046875,0.7705078125t0.1142578125,0.8056640625t0.2080078125,0.7294921875t0.3486328125,0.5390625t0.509765625,0.22265625l0.029296875,0q0.26953125,0,0.48046875-0.205078125q0.22265625-0.216796875,0.3955078125-0.521484375t0.298828125-0.6416015625t0.2255859375-0.5771484375l-0.0234375,0.052734375q0.169921875-0.5390625,0.228515625-1.1044921875t0.05859375-1.1162109375q0-0.263671875-0.03515625-0.6357421875t-0.1142578125-0.7763671875t-0.205078125-0.7998046875t-0.3193359375-0.6884765625t-0.451171875-0.4453125q-0.1875-0.111328125-0.416015625-0.1171875q-0.087890625,0-0.17578125,0.017578125q-0.298828125,0.05859375-0.509765625,0.29296875t-0.3427734375,0.5771484375t-0.2021484375,0.75t-0.1083984375,0.8203125t-0.0439453125,0.791015625t-0.005859375,0.6416015625z M124.6026171875,53.3984375l0-0.01171875l0,0.01171875z M127.10849609375,47.849609375q0-0.41015625,0.140625-0.55078125t0.392578125-0.140625q0.0703125,0,0.1494140625,0.01171875t0.1494140625,0.03515625q0.392578125-0.076171875,0.744140625-0.076171875q0.568359375,0,1.03125,0.19921875q0.744140625,0.31640625,1.23046875,0.9375t0.71484375,1.458984375t0.228515625,1.716796875q0,0.4921875-0.0673828125,1.025390625t-0.2607421875,0.990234375q-0.169921875,0.41015625-0.46875,0.8583984375t-0.6767578125,0.849609375t-0.814453125,0.703125t-0.8818359375,0.4072265625l0,0.046875q0,0.1171875-0.0615234375,0.1904296875t-0.1494140625,0.111328125t-0.2021484375,0.0498046875t-0.2138671875,0.01171875q-0.05859375,0-0.1669921875-0.01171875t-0.2109375-0.0439453125t-0.1728515625-0.0849609375t-0.0703125-0.146484375q0-1.06640625-0.0556640625-2.1357421875t-0.1259765625-2.138671875t-0.1259765625-2.1357421875t-0.0556640625-2.138671875z M128.21591796875,47.55078125q0.05859375,0.5625,0.076171875,1.1220703125t0.052734375,1.1220703125q0.09375,1.453125,0.216796875,2.8916015625t0.146484375,2.8916015625q0.5625-0.369140625,0.9638671875-0.84375t0.6591796875-1.03125t0.3779296875-1.1689453125t0.1201171875-1.2626953125q0-0.46875-0.08203125-1.03125t-0.28125-1.083984375t-0.5361328125-0.943359375t-0.8408203125-0.603515625q-0.10546875-0.03515625-0.2548828125-0.05859375t-0.4775390625-0.0234375q-0.03515625,0-0.0703125,0.01171875t-0.0703125,0.01171875z M133.088984375,50.673828125l0-0.451171875l0-0.462890625q0.005859375-0.46875,0.0380859375-0.8994140625t0.0908203125-0.7177734375q0.03515625-0.158203125,0.2109375-0.193359375t0.3046875-0.03515625q0.240234375,0,0.3544921875,0.05859375t0.1494140625,0.1669921875t0.029296875,0.2578125t-0.005859375,0.3427734375q0,0.275390625-0.01171875,0.767578125t-0.017578125,1.08984375l0,0.298828125q0,0.451171875,0.01171875,0.931640625q0.017578125,0.64453125,0.0673828125,1.2333984375t0.1376953125,1.060546875t0.24609375,0.7236328125q0.251953125-0.228515625,0.50390625-0.6416015625t0.48046875-0.9287109375t0.4365234375-1.0869140625t0.3779296875-1.1162109375t0.2900390625-1.025390625t0.1787109375-0.814453125q0.09375-0.48046875,0.1259765625-0.978515625t0.0322265625-1.107421875q0.181640625-0.216796875,0.28125-0.2724609375t0.31640625-0.0556640625q0.10546875,0,0.2138671875,0.017578125t0.2080078125,0.08203125l0.08203125,0.12890625l0,0.146484375q0,1.06640625-0.1025390625,2.1650390625t-0.216796875,2.208984375t-0.216796875,2.2265625t-0.1025390625,2.2177734375q0,0.169921875,0.0146484375,0.3603515625t0.0615234375,0.3603515625l-0.0234375,0.0703125q-0.08203125,0.134765625-0.26953125,0.169921875t-0.322265625,0.03515625q-0.287109375,0-0.4306640625-0.0849609375t-0.1904296875-0.234375t-0.041015625-0.345703125t0.005859375-0.4248046875q0-0.791015625,0.0703125-1.6083984375t0.169921875-1.6083984375q-0.09375,0.275390625-0.22265625,0.6650390625t-0.3017578125,0.779296875t-0.4013671875,0.71484375t-0.50390625,0.4658203125l0.01171875-0.01171875l-0.046875,0.0234375l0.01171875,0q-0.169921875,0.09375-0.3134765625,0.1259765625t-0.3369140625,0.0322265625q-0.38671875,0-0.6416015625-0.228515625t-0.4130859375-0.5888671875t-0.234375-0.80859375t-0.1083984375-0.8994140625t-0.0322265625-0.8583984375l0-0.6708984375q0-0.322265625-0.005859375-0.767578125z M135.174921875,55.337890625q0.01171875,0,0.01171875-0.01171875l0.01171875,0q-0.01171875,0.01171875-0.0234375,0.01171875z M139.42103515625,54.130859375q0-1.271484375,0.1142578125-2.5458984375t0.4775390625-2.5107421875q0.10546875-0.369140625,0.275390625-0.7294921875t0.416015625-0.6416015625t0.5859375-0.45703125t0.80859375-0.17578125l0.123046875,0.01171875q0.50390625,0.0703125,0.744140625,0.4072265625t0.240234375,0.8408203125q0,0.134765625-0.0322265625,0.3369140625t-0.1025390625,0.3896484375t-0.1904296875,0.3193359375t-0.3017578125,0.1318359375q-0.08203125-0.01171875-0.1494140625-0.029296875t-0.1259765625-0.076171875q0.09375-0.205078125,0.1669921875-0.427734375t0.0732421875-0.509765625q0-0.10546875-0.017578125-0.26953125t-0.0673828125-0.3251953125t-0.1318359375-0.28125t-0.228515625-0.1201171875q-0.369140625,0-0.62109375,0.4130859375t-0.421875,1.0546875t-0.251953125,1.41796875t-0.1259765625,1.5t-0.0498046875,1.306640625t-0.005859375,0.8232421875q0,0.28125-0.005859375,0.62109375l0,0.076171875q0.005859375,0.298828125,0.041015625,0.568359375q0.046875,0.3046875,0.181640625,0.52734375t0.421875,0.2578125q0.087890625,0.01171875,0.169921875,0.01171875q0.33984375,0,0.615234375-0.193359375q0.33984375-0.240234375,0.603515625-0.6240234375t0.46875-0.84375t0.3779296875-0.8701171875t0.3369140625-0.6796875t0.33984375-0.26953125q0.05859375,0,0.17578125,0.0234375t0.1171875,0.111328125q0,0.0234375-0.01171875,0.064453125t-0.029296875,0.064453125q-0.158203125,0.62109375-0.4013671875,1.2890625t-0.62109375,1.2158203125t-0.92578125,0.8935546875t-1.3154296875,0.345703125q-0.55078125,0-0.8935546875-0.2080078125t-0.52734375-0.556640625t-0.251953125-0.7880859375t-0.0673828125-0.890625z M145.3077734375,47.662109375q0-0.08203125,0.1142578125-0.1259765625t0.1494140625-0.0439453125l0.216796875-0.03515625q0.216796875-0.03515625,0.439453125-0.0615234375t0.43359375-0.0498046875q0.744140625-0.09375,1.48828125-0.1845703125t1.5-0.0908203125q0.05859375,0,0.1611328125,0.005859375t0.205078125,0.0322265625t0.17578125,0.0732421875t0.0732421875,0.12890625q0,0.05859375-0.0556640625,0.1025390625t-0.1318359375,0.0673828125t-0.1552734375,0.029296875t-0.1259765625,0.005859375l-0.1025390625,0t-0.1025390625-0.0234375q-0.310546875,0-0.6123046875,0.029296875t-0.6123046875,0.052734375q0.08203125,0.09375,0.087890625,0.263671875t0.01171875,0.29296875q0,2.07421875,0.029296875,4.125t0.052734375,4.142578125l0,0.01171875q-0.193359375,0.169921875-0.3310546875,0.216796875t-0.2783203125,0.046875q-0.134765625,0-0.2724609375-0.0498046875t-0.3310546875-0.2138671875l0-0.01171875l0.046875-4.599609375q0-0.45703125-0.01171875-1.0078125t-0.01171875-1.1162109375t0.017578125-1.0927734375t0.09375-0.919921875q-0.345703125,0.03515625-0.732421875,0.10546875q-0.333984375,0.05859375-0.638671875,0.05859375l-0.10546875,0q-0.0234375,0-0.1376953125,0.005859375t-0.234375-0.005859375t-0.216796875-0.046875t-0.0966796875-0.1171875z M151.10076171875,54.88671875q0-0.205078125,0.140625-0.2607421875t0.3046875-0.0556640625q0.287109375,0,0.486328125,0.2578125t0.3779296875,0.5654296875t0.3544921875,0.5654296875t0.416015625,0.2578125q0.181640625,0,0.3310546875-0.0908203125t0.2578125-0.228515625t0.1669921875-0.310546875t0.05859375-0.3427734375q0-0.4453125-0.1787109375-0.919921875t-0.45703125-0.978515625t-0.5888671875-1.03125t-0.5859375-1.072265625t-0.45703125-1.1103515625t-0.181640625-1.1396484375q0-0.861328125,0.515625-1.3359375t1.359375-0.474609375q0.287109375,0,0.580078125,0.08203125t0.5390625,0.24609375t0.4013671875,0.404296875t0.1552734375,0.5625q0,0.10546875-0.1552734375,0.1376953125t-0.2255859375,0.0322265625q-0.10546875,0-0.228515625-0.0263671875t-0.158203125-0.1435546875t-0.099609375-0.26953125t-0.1611328125-0.2841796875t-0.228515625-0.228515625t-0.2900390625-0.0966796875q-0.263671875,0-0.4482421875,0.1083984375t-0.298828125,0.2900390625t-0.169921875,0.4072265625t-0.0556640625,0.4658203125q0,0.5625,0.193359375,1.1337890625t0.48046875,1.13671875t0.6240234375,1.1162109375t0.6240234375,1.072265625t0.48046875,1.01953125t0.193359375,0.943359375q0,0.3984375-0.1875,0.673828125t-0.474609375,0.4482421875t-0.6357421875,0.251953125t-0.6826171875,0.0791015625q-0.357421875,0-0.732421875-0.1435546875t-0.673828125-0.3955078125t-0.4921875-0.5888671875t-0.193359375-0.7294921875z"/></svg>
